<svg xmlns="http://www.w3.org/2000/svg" width="20" height="20" style=""><rect id="backgroundrect" width="100%" height="100%" x="0" y="0" fill="none" stroke="none" class="" style=""/><g class="currentLayer" style=""><title>Layer 1</title><path d="M16,2 h4 v15 a3,3 0 0 1 -3,3 H3 a3,3 0 0 1 -3,-3 V0 h16 v2 zm0,2 v13 a1,1 0 0 0 1,1 a1,1 0 0 0 1,-1 V4 h-2 zM2,2 v15 a1,1 0 0 0 1,1 h11.17 a2.98,2.98 0 0 1 -0.17,-1 V2 H2 zm2,8 h8 v2 H4 v-2 zm0,4 h8 v2 H4 v-2 zM4,4 h8 v4 H4 V4 z" id="svg_1" class="" fill="#ffffff" fill-opacity="1"/></g></svg>