<svg width="16" height="16" xmlns="http://www.w3.org/2000/svg">
 <title/>

 <g>
  <title>background</title>
  <rect fill="none" id="canvas_background" height="402" width="582" y="-1" x="-1"/>
 </g>
 <g>
  <title>Layer 1</title>
  <rect id="svg_1" height="11.384253" width="8.861257" y="2.081342" x="3.523219" stroke-opacity="null" stroke-width="null" stroke="null" fill="#ffffff"/>
  <path fill="#4adb71" id="Oval 318" d="m6.87968,11.0591l0,1.9409l2.35109,0l0,-1.9409l-2.35109,0zm1.12032,4.9409c-4.41828,0 -8,-3.58172 -8,-8c0,-4.41828 3.58172,-8 8,-8c4.41828,0 8,3.58172 8,8c0,4.41828 -3.58172,8 -8,8zm-2.42998,-12.48959c-0.98357,0.5328 -1.5069,1.4372 -1.57002,2.71323l2.28008,0c0,-0.37162 0.12755,-0.72979 0.38264,-1.07455c0.2551,-0.34475 0.6877,-0.51712 1.29783,-0.51712c0.62065,0 1.048,0.13991 1.28205,0.41974c0.23406,0.27983 0.35109,0.58988 0.35109,0.93016c0,0.2955 -0.10519,0.56637 -0.31558,0.81262l-0.4576,0.39624l-0.57593,0.38281c-0.56805,0.37609 -0.92045,0.70853 -1.0572,0.99731c-0.13676,0.28879 -0.22091,0.81151 -0.25247,1.56817l2.13018,0c0.00526,-0.35818 0.03945,-0.62234 0.10256,-0.79248c0.09994,-0.26864 0.30243,-0.50369 0.6075,-0.70517l0.56016,-0.36937c0.56805,-0.3761 0.952,-0.68503 1.15187,-0.9268c0.34188,-0.39848 0.51282,-0.88874 0.51282,-1.47079c0,-0.94918 -0.39316,-1.66554 -1.17949,-2.14909c-0.78633,-0.48355 -1.77382,-0.72532 -2.96252,-0.72532c-0.90467,0 -1.66732,0.17014 -2.28797,0.51041zm0,0"/>
 </g>
</svg>